<svg xmlns="http://www.w3.org/2000/svg" xmlns:xlink="http://www.w3.org/1999/xlink" width="233.05" height="235.338" viewBox="0 0 233.05 235.338"><defs><style>.a{opacity:0.464;}.a,.b,.c{fill:url(#a);}.b{opacity:0.613;}.c{opacity:0.726;}</style><linearGradient id="a" x1="0.877" y1="0.148" x2="0.2" y2="0.898" gradientUnits="objectBoundingBox"><stop offset="0" stop-color="#fff"/><stop offset="1" stop-color="#fff"/></linearGradient></defs><g transform="translate(-69.093 -50.143)"><g transform="translate(-3 -2)"><path class="a" d="M203.656,68.315c-11.082-14.6-16.345-9.534-21.162-28.707C177.448,19.526,166.261,0,134.908,0c-13.287,0-26.942,3.659-36.2,13.776-9.517,10.4-15.41,6.552-28.072,6.647-.237,0-.474,0-.71.01C32.715,21.184.18,75.027,0,121.361c-.183,47.434,30.644,85.958,68.7,85.958h.373c20.332-.135,30.788-6.6,48.173,6.522a57.725,57.725,0,0,0,34.7,12.13c37.187.175,70.067-53.406,70.155-99.707C222.142,103.822,215.124,83.422,203.656,68.315Z" transform="translate(305.143 287.48) rotate(180)"/><path class="b" d="M197.139,62.07C186.425,48.8,181.327,53.413,176.68,35.981,171.812,17.723,161-.025,130.656,0,117.8.011,104.578,3.349,95.609,12.557c-9.219,9.464-14.919,5.97-27.173,6.067-.229,0-.458,0-.687.01C31.738,19.345.21,68.337,0,110.472c-.213,43.136,29.593,78.145,66.422,78.115h.361c19.677-.139,29.8-6.03,46.617,5.893a58.094,58.094,0,0,0,33.572,11c35.99.13,67.852-48.623,67.972-90.729C215,94.346,208.227,75.8,197.139,62.07Z" transform="matrix(0.105, -0.995, 0.995, 0.105, 72.093, 265.911)"/><path class="c" d="M203.768,53.862c-11.09-11.511-16.356-7.518-21.177-22.632C177.54,15.4,166.345,0,134.973,0c-13.3,0-26.957,2.881-36.221,10.855-9.522,8.2-15.418,5.162-28.088,5.236-.237,0-.474,0-.711.008C32.723,16.685.175,59.126,0,95.65c-.178,37.393,30.672,67.765,68.748,67.771h.373c20.344-.1,30.8-5.2,48.2,5.148a68.227,68.227,0,0,0,34.719,9.567c37.209.143,70.1-42.09,70.185-78.59A65.406,65.406,0,0,0,203.768,53.862Z" transform="matrix(1, 0.017, -0.017, 1, 77.136, 77.297)"/></g></g></svg>