<svg xmlns="http://www.w3.org/2000/svg" width="21.316" height="19.54" viewBox="0 0 21.316 19.54"><defs><style>.a{fill:#fff;}</style></defs><g transform="translate(1 -23.322)"><g transform="translate(-1 23.322)"><path class="a" d="M157.326,23.987h-4.971l1.148-1.148a.888.888,0,0,0-1.256-1.256l-2.665,2.665c-.021.021-.04.042-.059.065s-.016.021-.024.032-.019.025-.028.038-.016.026-.023.039-.015.024-.021.036-.013.027-.019.04-.012.025-.018.039-.01.026-.015.04-.01.028-.015.042-.007.027-.01.04-.008.029-.011.044,0,.031-.007.047,0,.026-.006.039c0,.029,0,.058,0,.087h0c0,.029,0,.058,0,.087,0,.013,0,.026.006.039s0,.031.007.047.007.029.011.044.006.027.01.04.01.028.015.042.009.027.014.04.012.026.018.039.012.027.019.04.014.024.021.036.015.026.023.039.019.026.028.038.015.021.024.032.038.044.059.065l2.665,2.665a.888.888,0,1,0,1.256-1.256l-1.148-1.148h4.961a5.325,5.325,0,0,1,5.329,5.329,4.819,4.819,0,0,1-1.421,3.415.888.888,0,0,0,1.257,1.256,6.6,6.6,0,0,0,1.94-4.671A7.1,7.1,0,0,0,157.326,23.987Z" transform="translate(-143.106 -21.322)"/><path class="a" d="M14.921,149.22c.009-.013.019-.025.028-.038s.016-.026.024-.039.015-.024.021-.036.013-.027.019-.04.012-.025.018-.038.01-.027.015-.04.01-.028.015-.042.007-.027.01-.04.008-.029.011-.044,0-.031.007-.047,0-.026.006-.039a.894.894,0,0,0,0-.175c0-.013,0-.026-.006-.039s0-.031-.007-.047-.007-.029-.011-.044-.006-.027-.01-.04-.01-.028-.015-.042-.009-.027-.015-.04-.012-.026-.018-.038-.012-.027-.019-.04-.014-.024-.021-.036-.015-.026-.024-.039-.019-.025-.028-.038l-.024-.032c-.018-.022-.038-.044-.058-.064h0L12.174,145.4a.888.888,0,1,0-1.256,1.256l1.148,1.148H7.106a5.325,5.325,0,0,1-5.329-5.329A4.82,4.82,0,0,1,3.2,139.056.888.888,0,1,0,1.94,137.8,6.6,6.6,0,0,0,0,142.471a7.1,7.1,0,0,0,7.1,7.105h4.971l-1.148,1.148a.888.888,0,0,0,1.256,1.256l2.665-2.665h0c.02-.021.04-.042.058-.065S14.913,149.23,14.921,149.22Z" transform="translate(0 -132.701)"/></g></g></svg>